<svg width="57" height="57" viewBox="0 0 57 57" fill="none" xmlns="http://www.w3.org/2000/svg">
<path d="M16 41.4C16 40.8667 16.2 40.4 16.6 40C17 39.6 17.4 39.4 17.8 39.4H38.6C39 39.4 39.4 39.6 39.8 40C40.2 40.4 40.4 40.8667 40.4 41.4C40.4 41.9334 40.2 42.3667 39.8 42.7C39.4 43.0334 39 43.2 38.6 43.2H17.8C17.4 43.2 17 43.0334 16.6 42.7C16.2 42.3667 16 41.9334 16 41.4ZM36.2 2.80002C33.9333 0.933357 31.2667 2.35736e-05 28.2 2.35736e-05C25.1333 2.35736e-05 22.4667 0.933357 20.2 2.80002L5.2 14.4C3.6 15.7334 2.33333 17.2667 1.4 19C0.466667 20.7334 0 22.6 0 24.6V43.4C0 45.6667 0.6 47.8 1.8 49.8C3 51.8 4.6 53.4 6.6 54.6C8.6 55.8 10.8 56.4 13.2 56.4H43.2C45.6 56.4 47.8 55.8 49.8 54.6C51.8 53.4 53.4 51.8 54.6 49.8C55.8 47.8 56.4 45.6667 56.4 43.4V24.6C56.4 22.6 55.9333 20.7334 55 19C54.0667 17.2667 52.8 15.7334 51.2 14.4L36.2 2.80002ZM22.4 5.80002C24.1333 4.46669 26.0667 3.80002 28.2 3.80002C30.3333 3.80002 32.2667 4.46669 34 5.80002L49 17.4C50.0667 18.3334 50.9333 19.4334 51.6 20.7C52.2667 21.9667 52.6 23.2667 52.6 24.6V43.4C52.6 45.9334 51.6667 48.1 49.8 49.9C47.9333 51.7 45.7333 52.6 43.2 52.6H13.2C10.6667 52.6 8.46667 51.7 6.6 49.9C4.73333 48.1 3.8 45.9334 3.8 43.4V24.6C3.8 23.2667 4.13333 21.9667 4.8 20.7C5.46667 19.4334 6.33333 18.3334 7.4 17.4L22.4 5.80002Z" fill="#1A1A1A"/>
</svg>
