<svg width="60" height="60" viewBox="0 0 60 60" fill="none" xmlns="http://www.w3.org/2000/svg">
<path d="M58.5902 43L56.7905 41.4V34.4C56.7905 33.2 56.3573 32.1666 55.4908 31.3C54.6242 30.4333 53.6244 30 52.4913 30C51.3581 30 50.3916 30.3333 49.5917 31C48.7919 31.6666 48.2586 32.5333 47.992 33.6L46.3923 32.2C45.5924 31.4 44.5926 31 43.3928 31C42.193 31 41.1265 31.4 40.1933 32.2L27.9953 43C27.7287 43.2666 27.5954 43.6 27.5954 44C27.5954 44.4 27.6954 44.7333 27.8954 45C28.0953 45.2666 28.3953 45.4 28.7952 45.4C29.1951 45.4 29.5284 45.3333 29.795 45.2V55C29.795 56.2 30.195 57.2 30.9948 58C31.7947 58.8 32.7279 59.2 33.7944 59.2H52.7912C53.991 59.2 54.9575 58.8 55.6907 58C56.4239 57.2 56.7905 56.2 56.7905 55V45.2C57.1905 45.3333 57.5571 45.4 57.8904 45.4C58.2236 45.4 58.5236 45.2333 58.7902 44.9C59.0568 44.5666 59.1568 44.2333 59.0902 43.9C59.0235 43.5666 58.8569 43.2666 58.5902 43ZM45.7924 56.4H41.1931V53C41.1931 52.4666 41.3931 52 41.793 51.6C42.193 51.2 42.6596 51 43.1928 51H43.7927C44.3259 51 44.7925 51.2 45.1925 51.6C45.5924 52 45.7924 52.4666 45.7924 53V56.4ZM53.991 55C53.991 55.4 53.891 55.7333 53.6911 56C53.4911 56.2666 53.1911 56.4 52.7912 56.4H48.5919V53C48.5919 51.6666 48.1253 50.5333 47.1921 49.6C46.259 48.6666 45.1258 48.2 43.7927 48.2H43.1928C41.8597 48.2 40.7265 48.6666 39.7934 49.6C38.8602 50.5333 38.3936 51.6666 38.3936 53V56.4H33.7944C33.5277 56.4 33.2611 56.2666 32.9945 56C32.7279 55.7333 32.5946 55.4 32.5946 55V42.6L41.993 34.4C42.3929 34 42.8262 33.8 43.2928 33.8C43.7594 33.8 44.1926 34 44.5926 34.4L53.991 42.6V55ZM53.991 34.4V39L50.7915 36V34.4C50.7915 34 50.9248 33.6333 51.1915 33.3C51.4581 32.9666 51.8247 32.7666 52.2913 32.7C52.7579 32.6333 53.1578 32.7666 53.4911 33.1C53.8244 33.4333 53.991 33.8666 53.991 34.4ZM43.3928 37.2C42.193 37.2 41.1931 37.6333 40.3933 38.5C39.5934 39.3666 39.1935 40.3666 39.1935 41.5C39.1935 42.6333 39.5934 43.6 40.3933 44.4C41.1931 45.2 42.1596 45.6 43.2928 45.6C44.4259 45.6 45.4258 45.2 46.2923 44.4C47.1588 43.6 47.5921 42.6333 47.5921 41.5C47.5921 40.3666 47.1588 39.3666 46.2923 38.5C45.4258 37.6333 44.4593 37.2 43.3928 37.2ZM44.5926 41.4C44.5926 41.8 44.4926 42.1333 44.2926 42.4C44.0927 42.6666 43.7927 42.8 43.3928 42.8C42.9928 42.8 42.6596 42.6666 42.3929 42.4C42.1263 42.1333 41.993 41.8 41.993 41.4C41.993 41 42.1263 40.6666 42.3929 40.4C42.6596 40.1333 42.9928 40 43.3928 40C43.7927 40 44.0927 40.1333 44.2926 40.4C44.4926 40.6666 44.5926 41 44.5926 41.4ZM25.1958 56.2H7.39877C6.19897 56.2 5.13248 55.7666 4.1993 54.9C3.26612 54.0333 2.79953 53 2.79953 51.8V7.39995C2.79953 6.19995 3.26612 5.13328 4.1993 4.19995C5.13248 3.26662 6.19897 2.79995 7.39877 2.79995H47.992C49.3251 2.79995 50.4249 3.26662 51.2915 4.19995C52.158 5.13328 52.5912 6.19995 52.5912 7.39995V25.2C52.5912 25.6 52.7245 25.9333 52.9912 26.2C53.2578 26.4666 53.5911 26.6 53.991 26.6C54.3909 26.6 54.7242 26.4666 54.9908 26.2C55.2575 25.9333 55.3908 25.6 55.3908 25.2V7.39995C55.3908 5.39995 54.6576 3.66662 53.1911 2.19995C51.7247 0.733284 49.9917 -4.97103e-05 47.992 -4.97103e-05H7.39877C5.3991 -4.97103e-05 3.66606 0.733284 2.19963 2.19995C0.733211 3.66662 0 5.39995 0 7.39995V51.8C0 53.8 0.733211 55.5333 2.19963 57C3.66606 58.4666 5.3991 59.2 7.39877 59.2H25.1958C25.5957 59.2 25.9623 59.0333 26.2956 58.7C26.6289 58.3666 26.7955 58.0333 26.7955 57.7C26.7955 57.3666 26.6289 57.0333 26.2956 56.7C25.9623 56.3666 25.5957 56.2 25.1958 56.2ZM42.5929 14.2C42.5929 13.8 42.4596 13.4666 42.193 13.2C41.9263 12.9333 41.5931 12.8 41.1931 12.8H13.3978C12.9978 12.8 12.6646 12.9333 12.3979 13.2C12.1313 13.4666 11.998 13.8 11.998 14.2C11.998 14.6 12.1313 14.9333 12.3979 15.2C12.6646 15.4666 12.9978 15.6 13.3978 15.6H41.1931C41.5931 15.6 41.9263 15.4666 42.193 15.2C42.4596 14.9333 42.5929 14.6 42.5929 14.2ZM35.794 25C35.794 24.7333 35.6607 24.4333 35.3941 24.1C35.1275 23.7666 34.7942 23.6 34.3943 23.6H13.3978C12.9978 23.6 12.6646 23.7666 12.3979 24.1C12.1313 24.4333 11.998 24.7666 11.998 25.1C11.998 25.4333 12.1313 25.7666 12.3979 26.1C12.6646 26.4333 12.9978 26.6 13.3978 26.6H34.3943C34.7942 26.6 35.1275 26.4333 35.3941 26.1C35.6607 25.7666 35.794 25.4 35.794 25ZM13.3978 34.6C12.9978 34.6 12.6646 34.7333 12.3979 35C12.1313 35.2666 11.998 35.6 11.998 36C11.998 36.4 12.1313 36.7333 12.3979 37C12.6646 37.2666 12.9978 37.4 13.3978 37.4H21.9963C22.263 37.4 22.5629 37.2666 22.8962 37C23.2295 36.7333 23.3961 36.4 23.3961 36C23.3961 35.6 23.2295 35.2666 22.8962 35C22.5629 34.7333 22.263 34.6 21.9963 34.6H13.3978Z" fill="#1A1A1A"/>
</svg>
