<svg width="52" height="54" viewBox="0 0 52 54" fill="none" xmlns="http://www.w3.org/2000/svg">
<path d="M25.44 53.2C24.64 53.2 23.9067 53 23.24 52.6L14.44 47.4C10.7067 45.2666 7.67333 42.3333 5.34 38.6C3.00667 34.8666 1.64 30.8666 1.24 26.6L0.04 11.6C-0.0933333 10.5333 0.106667 9.56662 0.64 8.69995C1.17333 7.83328 1.90667 7.26662 2.84 6.99995C4.30667 6.59995 5.64 5.99995 6.84 5.19995C8.30667 4.26662 9.64 3.06662 10.84 1.59995C11.64 0.533284 12.7733 -4.96209e-05 14.24 -4.96209e-05H36.64C38.1067 -4.96209e-05 39.24 0.533284 40.04 1.59995C41.24 3.06662 42.5733 4.26662 44.04 5.19995C45.24 5.99995 46.5733 6.59995 48.04 6.99995C48.9733 7.26662 49.7067 7.83328 50.24 8.69995C50.7733 9.56662 51.04 10.4666 51.04 11.4L49.64 26.4C49.3733 30.8 48.0733 34.8333 45.74 38.5C43.4067 42.1666 40.3733 45.1333 36.64 47.4L27.84 52.6C27.04 53 26.24 53.2 25.44 53.2ZM14.24 3.59995C13.9733 3.59995 13.7733 3.66662 13.64 3.79995C12.3067 5.53328 10.7733 7.06662 9.04 8.39995C7.57333 9.33328 5.97333 9.99995 4.24 10.4C3.84 10.5333 3.64 10.8 3.64 11.2L5.04 26.2C5.30667 29.9333 6.44 33.4 8.44 36.6C10.44 39.8 13.04 42.3333 16.24 44.2L25.04 49.4C25.3067 49.5333 25.5733 49.5333 25.84 49.4L34.64 44.2C37.84 42.3333 40.44 39.8333 42.44 36.7C44.44 33.5666 45.5733 30.0666 45.84 26.2L47.24 11.2C47.24 10.9333 47.04 10.7333 46.64 10.6C44.9067 10.2 43.3067 9.46662 41.84 8.39995C40.1067 7.19995 38.5733 5.73328 37.24 3.99995C37.1067 3.86662 36.9067 3.79995 36.64 3.79995L14.24 3.59995ZM23.64 32.4C23.1067 32.4 22.64 32.2 22.24 31.8L17.24 26.8C16.9733 26.5333 16.8733 26.1666 16.94 25.7C17.0067 25.2333 17.2067 24.8333 17.54 24.5C17.8733 24.1666 18.24 23.9666 18.64 23.9C19.04 23.8333 19.44 23.9333 19.84 24.2L23.64 28L32.24 19.2C32.64 19.0666 33.04 19 33.44 19C33.84 19 34.2067 19.1666 34.54 19.5C34.8733 19.8333 35.0733 20.2 35.14 20.6C35.2067 21 35.1067 21.4 34.84 21.8L24.84 31.8C24.5733 32.2 24.1733 32.4 23.64 32.4Z" fill="#1A1A1A"/>
</svg>
