<svg width="20" height="20" viewBox="0 0 20 20" fill="none" xmlns="http://www.w3.org/2000/svg">
<g clip-path="url(#clip0_1_72)">
<path d="M16.1333 2.53333C15.2889 1.73333 14.3444 1.11111 13.3 0.666666C12.2556 0.222221 11.1556 -1.90735e-06 10 -1.90735e-06C8.84445 -1.90735e-06 7.73334 0.222221 6.66667 0.666666C5.6 1.11111 4.66667 1.73333 3.86667 2.53333C3.06667 3.33333 2.44445 4.26667 2 5.33333C1.55556 6.4 1.33334 7.51111 1.33334 8.66667C1.33334 9.82222 1.55556 10.9222 2 11.9667C2.44445 13.0111 3.06667 13.9556 3.86667 14.8L8.46667 19.4C8.86667 19.8 9.36667 20 9.96667 20C10.5667 20 11.0889 19.8 11.5333 19.4L16.1333 14.8C16.9333 13.9556 17.5556 13.0111 18 11.9667C18.4444 10.9222 18.6667 9.82222 18.6667 8.66667C18.6667 7.51111 18.4444 6.4 18 5.33333C17.5556 4.26667 16.9333 3.33333 16.1333 2.53333ZM15.2667 13.9333L10.6667 18.5333C10.4889 18.7111 10.2667 18.8 10 18.8C9.73334 18.8 9.48889 18.7111 9.26667 18.5333L4.66667 13.9333C3.95556 13.2222 3.42222 12.4111 3.06667 11.5C2.71111 10.5889 2.53334 9.63333 2.53334 8.63333C2.53334 7.63333 2.71111 6.67778 3.06667 5.76667C3.42222 4.85555 3.95556 4.05555 4.66667 3.36666C5.37778 2.67778 6.18889 2.14444 7.1 1.76667C8.01111 1.38889 8.96667 1.2 9.96667 1.2C10.9667 1.2 11.9222 1.38889 12.8333 1.76667C13.7444 2.14444 14.5556 2.66667 15.2667 3.33333C16.2444 4.31111 16.9 5.44444 17.2333 6.73333C17.5667 8.02222 17.5667 9.31111 17.2333 10.6C16.9 11.8889 16.2444 13 15.2667 13.9333ZM10 5.53333C9.15556 5.53333 8.42222 5.84444 7.8 6.46667C7.17778 7.08889 6.86667 7.82222 6.86667 8.66667C6.86667 9.51111 7.17778 10.2333 7.8 10.8333C8.42222 11.4333 9.15556 11.7333 10 11.7333C10.8444 11.7333 11.5667 11.4333 12.1667 10.8333C12.7667 10.2333 13.0667 9.51111 13.0667 8.66667C13.0667 7.82222 12.7667 7.08889 12.1667 6.46667C11.5667 5.84444 10.8444 5.53333 10 5.53333ZM10 10.6C9.46667 10.6 9.01111 10.4111 8.63334 10.0333C8.25556 9.65555 8.06667 9.2 8.06667 8.66667C8.06667 8.13333 8.25556 7.67778 8.63334 7.3C9.01111 6.92222 9.46667 6.73333 10 6.73333C10.5333 6.73333 10.9889 6.92222 11.3667 7.3C11.7444 7.67778 11.9333 8.13333 11.9333 8.66667C11.9333 9.2 11.7444 9.65555 11.3667 10.0333C10.9889 10.4111 10.5333 10.6 10 10.6Z" fill="white"/>
</g>
<defs>
<clipPath id="clip0_1_72">
<rect width="20" height="20" fill="white" transform="matrix(1 0 0 -1 0 20)"/>
</clipPath>
</defs>
</svg>
