<svg width="20" height="20" viewBox="0 0 20 20" fill="none" xmlns="http://www.w3.org/2000/svg">
<g clip-path="url(#clip0_1_76)">
<path d="M17.5333 6.2667H8.73333C8.28889 6.2667 7.86667 6.40003 7.46667 6.6667C7.37778 6.00003 7.1 5.45559 6.63333 5.03337C6.16667 4.61114 5.62222 4.40003 5 4.40003C4.51111 4.40003 4.06667 4.51114 3.66667 4.73337V3.73337C3.66667 3.55559 3.61111 3.41114 3.5 3.30003C3.38889 3.18892 3.24444 3.13337 3.06667 3.13337H0.6C0.422222 3.13337 0.277778 3.18892 0.166667 3.30003C0.0555556 3.41114 0 3.55559 0 3.73337V16.2667C0 16.4445 0.0555556 16.5889 0.166667 16.7C0.277778 16.8111 0.422222 16.8667 0.6 16.8667H3.06667C3.24444 16.8667 3.38889 16.8111 3.5 16.7C3.61111 16.5889 3.66667 16.4445 3.66667 16.2667V14.3334H16.3333V16.2667C16.3333 16.4445 16.3889 16.5889 16.5 16.7C16.6111 16.8111 16.7556 16.8667 16.9333 16.8667H19.4C19.5778 16.8667 19.7222 16.8111 19.8333 16.7C19.9444 16.5889 20 16.4445 20 16.2667V8.73337C20 8.0667 19.7556 7.48892 19.2667 7.00003C18.7778 6.51114 18.2 6.2667 17.5333 6.2667ZM5 5.53337C5.35556 5.53337 5.65556 5.6667 5.9 5.93336C6.14444 6.20003 6.26667 6.51114 6.26667 6.8667C6.26667 7.22225 6.14444 7.52225 5.9 7.7667C5.65556 8.01114 5.35556 8.13337 5 8.13337C4.64444 8.13337 4.33333 8.01114 4.06667 7.7667C3.8 7.52225 3.66667 7.22225 3.66667 6.8667C3.66667 6.51114 3.8 6.20003 4.06667 5.93336C4.33333 5.6667 4.64444 5.53337 5 5.53337ZM3.66667 8.93337C4.06667 9.20003 4.5 9.33337 4.96667 9.33337C5.43333 9.33337 5.86667 9.20003 6.26667 8.93337V10.6667H3.66667V8.93337ZM18.8 15.6667H17.4667V13.7334C17.4667 13.6 17.4111 13.4778 17.3 13.3667C17.1889 13.2556 17.0667 13.2 16.9333 13.2H3.06667C2.93333 13.2 2.81111 13.2556 2.7 13.3667C2.58889 13.4778 2.53333 13.6 2.53333 13.7334V15.6667H1.2V4.33337H2.53333V11.2667C2.53333 11.4 2.58889 11.5334 2.7 11.6667C2.81111 11.8 2.93333 11.8667 3.06667 11.8667H18.8V15.6667ZM18.8 10.6667H7.46667V8.73337C7.46667 8.37781 7.58889 8.07781 7.83333 7.83337C8.07778 7.58892 8.37778 7.4667 8.73333 7.4667H17.5333C17.8889 7.4667 18.1889 7.58892 18.4333 7.83337C18.6778 8.07781 18.8 8.37781 18.8 8.73337V10.6667Z" fill="white"/>
</g>
<defs>
<clipPath id="clip0_1_76">
<rect width="20" height="20" fill="white" transform="matrix(1 0 0 -1 0 20)"/>
</clipPath>
</defs>
</svg>
