<svg width="20" height="20" viewBox="0 0 20 20" fill="none" xmlns="http://www.w3.org/2000/svg">
<g clip-path="url(#clip0_1_80)">
<path d="M20 10.1333C20 9.64444 19.8333 9.23333 19.5 8.9C19.1667 8.56666 18.7556 8.4 18.2667 8.4H3.13333V3C3.13333 2.55555 3.28889 2.17777 3.6 1.86666C3.82222 1.64444 4.07778 1.51111 4.36667 1.46666C4.65556 1.42222 4.95556 1.44444 5.26667 1.53333C4.86667 2.15555 4.71111 2.84444 4.8 3.6C4.88889 4.35555 5.2 5 5.73333 5.53333L5.86667 5.73333C6 5.82222 6.14444 5.86666 6.3 5.86666C6.45556 5.86666 6.57778 5.82222 6.66667 5.73333L10.4667 1.93333C10.6 1.8 10.6667 1.65555 10.6667 1.5C10.6667 1.34444 10.6 1.2 10.4667 1.06666L10.3333 0.933331C9.75556 0.355553 9.05556 0.0444412 8.23333 -3.8147e-06C7.41111 -0.0444469 6.68889 0.177774 6.06667 0.666664C5.53333 0.355553 4.95556 0.23333 4.33333 0.299997C3.71111 0.366663 3.17778 0.622219 2.73333 1.06666C2.2 1.6 1.93333 2.24444 1.93333 3V8.4H1.73333C1.24444 8.4 0.833333 8.56666 0.499999 8.9C0.166666 9.23333 -5.21541e-07 9.64444 -5.21541e-07 10.1333C-5.21541e-07 10.5333 0.111111 10.8778 0.333333 11.1667C0.555555 11.4556 0.822222 11.6667 1.13333 11.8V13.0667C1.13333 14.1333 1.42222 15.1111 2 16C2.57778 16.8889 3.31111 17.5778 4.2 18.0667L3.66667 19.1333C3.57778 19.3111 3.56667 19.4667 3.63333 19.6C3.7 19.7333 3.8 19.8444 3.93333 19.9333C4.06667 20.0222 4.21111 20.0333 4.36667 19.9667C4.52222 19.9 4.64444 19.8 4.73333 19.6667L5.33333 18.4667C5.77778 18.5556 6.24444 18.6 6.73333 18.6H13.2667C13.7556 18.6 14.2222 18.5556 14.6667 18.4667L15.2667 19.6667C15.3556 19.8 15.4778 19.9 15.6333 19.9667C15.7889 20.0333 15.9333 20.0222 16.0667 19.9333C16.2 19.8444 16.3 19.7333 16.3667 19.6C16.4333 19.4667 16.4222 19.3111 16.3333 19.1333L15.8 18.0667C16.6889 17.5778 17.4222 16.8889 18 16C18.5778 15.1111 18.8667 14.1333 18.8667 13.0667V11.8C19.1778 11.6667 19.4444 11.4556 19.6667 11.1667C19.8889 10.8778 20 10.5333 20 10.1333ZM9.2 1.53333L6.33333 4.46666C6.02222 4.02222 5.88889 3.55555 5.93333 3.06666C5.97778 2.57777 6.17778 2.15555 6.53333 1.8C6.88889 1.44444 7.32222 1.24444 7.83333 1.2C8.34444 1.15555 8.8 1.26666 9.2 1.53333ZM1.73333 9.6H18.2667C18.4 9.6 18.5222 9.65555 18.6333 9.76666C18.7444 9.87778 18.8 10.0111 18.8 10.1667C18.8 10.3222 18.7444 10.4556 18.6333 10.5667C18.5222 10.6778 18.4 10.7333 18.2667 10.7333H1.73333C1.6 10.7333 1.47778 10.6778 1.36667 10.5667C1.25556 10.4556 1.2 10.3222 1.2 10.1667C1.2 10.0111 1.25556 9.87778 1.36667 9.76666C1.47778 9.65555 1.6 9.6 1.73333 9.6ZM17.6667 13.0667C17.6667 13.8667 17.4667 14.6 17.0667 15.2667C16.6667 15.9333 16.1333 16.4667 15.4667 16.8667C14.8 17.2667 14.0667 17.4667 13.2667 17.4667H6.73333C5.93333 17.4667 5.2 17.2667 4.53333 16.8667C3.86667 16.4667 3.33333 15.9333 2.93333 15.2667C2.53333 14.6 2.33333 13.8667 2.33333 13.0667V11.9333H17.6667V13.0667ZM8.46667 5.93333C8.46667 6.11111 8.52222 6.25555 8.63333 6.36666C8.74444 6.47777 8.87778 6.53333 9.03333 6.53333C9.18889 6.53333 9.32222 6.47777 9.43333 6.36666C9.54444 6.25555 9.6 6.11111 9.6 5.93333C9.6 5.75555 9.54444 5.61111 9.43333 5.5C9.32222 5.38889 9.18889 5.33333 9.03333 5.33333C8.87778 5.33333 8.74444 5.38889 8.63333 5.5C8.52222 5.61111 8.46667 5.75555 8.46667 5.93333ZM10.1333 4.26666C10.1333 4.44444 10.1889 4.58889 10.3 4.7C10.4111 4.81111 10.5444 4.86666 10.7 4.86666C10.8556 4.86666 10.9889 4.81111 11.1 4.7C11.2111 4.58889 11.2667 4.44444 11.2667 4.26666C11.2667 4.08889 11.2111 3.94444 11.1 3.83333C10.9889 3.72222 10.8556 3.66666 10.7 3.66666C10.5444 3.66666 10.4111 3.72222 10.3 3.83333C10.1889 3.94444 10.1333 4.08889 10.1333 4.26666ZM10.5333 6.33333C10.5333 6.46666 10.5889 6.6 10.7 6.73333C10.8111 6.86666 10.9444 6.93333 11.1 6.93333C11.2556 6.93333 11.3889 6.86666 11.5 6.73333C11.6111 6.6 11.6667 6.45555 11.6667 6.3C11.6667 6.14444 11.6111 6.01111 11.5 5.9C11.3889 5.78889 11.2556 5.73333 11.1 5.73333C10.9444 5.73333 10.8111 5.78889 10.7 5.9C10.5889 6.01111 10.5333 6.15555 10.5333 6.33333Z" fill="white"/>
</g>
<defs>
<clipPath id="clip0_1_80">
<rect width="20" height="20" fill="white" transform="matrix(1 0 0 -1 0 20)"/>
</clipPath>
</defs>
</svg>
