<svg width="20" height="20" viewBox="0 0 20 20" fill="none" xmlns="http://www.w3.org/2000/svg">
<g clip-path="url(#clip0_1_83)">
<path d="M15.8667 18.8H13.4667C13.3333 18.8 13.2 18.8667 13.0667 19C12.9333 19.1333 12.8667 19.2778 12.8667 19.4333C12.8667 19.5889 12.9333 19.7222 13.0667 19.8333C13.2 19.9444 13.3333 20 13.4667 20H15.8667C16.0444 20 16.1889 19.9444 16.3 19.8333C16.4111 19.7222 16.4667 19.5889 16.4667 19.4333C16.4667 19.2778 16.4111 19.1333 16.3 19C16.1889 18.8667 16.0444 18.8 15.8667 18.8ZM11.1333 18.8H8.8C8.62222 18.8 8.47778 18.8667 8.36667 19C8.25556 19.1333 8.2 19.2778 8.2 19.4333C8.2 19.5889 8.25556 19.7222 8.36667 19.8333C8.47778 19.9444 8.62222 20 8.8 20H11.1333C11.3111 20 11.4556 19.9444 11.5667 19.8333C11.6778 19.7222 11.7333 19.5889 11.7333 19.4333C11.7333 19.2778 11.6778 19.1333 11.5667 19C11.4556 18.8667 11.3111 18.8 11.1333 18.8ZM19.4 8.2C19.2667 8.2 19.1333 8.25556 19 8.36667C18.8667 8.47778 18.8 8.62222 18.8 8.8V11.1333C18.8 11.3111 18.8667 11.4556 19 11.5667C19.1333 11.6778 19.2778 11.7333 19.4333 11.7333C19.5889 11.7333 19.7222 11.6778 19.8333 11.5667C19.9444 11.4556 20 11.3111 20 11.1333V8.8C20 8.62222 19.9444 8.47778 19.8333 8.36667C19.7222 8.25556 19.5778 8.2 19.4 8.2ZM19.4 12.8667C19.2667 12.8667 19.1333 12.9333 19 13.0667C18.8667 13.2 18.8 13.3333 18.8 13.4667V15.8C18.8 15.9778 18.8667 16.1222 19 16.2333C19.1333 16.3444 19.2778 16.4 19.4333 16.4C19.5889 16.4 19.7222 16.3444 19.8333 16.2333C19.9444 16.1222 20 15.9778 20 15.8V13.4667C20 13.3333 19.9444 13.2 19.8333 13.0667C19.7222 12.9333 19.5778 12.8667 19.4 12.8667ZM6.46667 18.8H5.86667V18.2667C5.86667 18.0889 5.81111 17.9444 5.7 17.8333C5.58889 17.7222 5.44444 17.6667 5.26667 17.6667C5.08889 17.6667 4.94444 17.7222 4.83333 17.8333C4.72222 17.9444 4.66667 18.0889 4.66667 18.2667V19.4C4.66667 19.5778 4.72222 19.7222 4.83333 19.8333C4.94444 19.9444 5.08889 20 5.26667 20H6.46667C6.6 20 6.72222 19.9444 6.83333 19.8333C6.94444 19.7222 7 19.5889 7 19.4333C7 19.2778 6.94444 19.1333 6.83333 19C6.72222 18.8667 6.6 18.8 6.46667 18.8ZM19.4 4.66667H18.2667C18.0889 4.66667 17.9444 4.72222 17.8333 4.83333C17.7222 4.94444 17.6667 5.08889 17.6667 5.26667C17.6667 5.44444 17.7222 5.58889 17.8333 5.7C17.9444 5.81111 18.0889 5.86667 18.2667 5.86667H18.8V6.46667C18.8 6.6 18.8667 6.72222 19 6.83333C19.1333 6.94444 19.2778 7 19.4333 7C19.5889 7 19.7222 6.94444 19.8333 6.83333C19.9444 6.72222 20 6.6 20 6.46667V5.26667C20 5.08889 19.9444 4.94444 19.8333 4.83333C19.7222 4.72222 19.5778 4.66667 19.4 4.66667ZM19.4 17.6667C19.2667 17.6667 19.1333 17.7222 19 17.8333C18.8667 17.9444 18.8 18.0889 18.8 18.2667V18.8H18.2667C18.0889 18.8 17.9444 18.8667 17.8333 19C17.7222 19.1333 17.6667 19.2778 17.6667 19.4333C17.6667 19.5889 17.7222 19.7222 17.8333 19.8333C17.9444 19.9444 18.0889 20 18.2667 20H19.4C19.5778 20 19.7222 19.9444 19.8333 19.8333C19.9444 19.7222 20 19.5778 20 19.4V18.2667C20 18.0889 19.9444 17.9444 19.8333 17.8333C19.7222 17.7222 19.5778 17.6667 19.4 17.6667ZM15.8667 4.66667H15.2667V0.599998C15.2667 0.422222 15.2 0.277777 15.0667 0.166666C14.9333 0.0555553 14.8 -1.90735e-06 14.6667 -1.90735e-06H0.6C0.422222 -1.90735e-06 0.277778 0.0555553 0.166667 0.166666C0.0555556 0.277777 0 0.422222 0 0.599998V14.6667C0 14.8 0.0555556 14.9333 0.166667 15.0667C0.277778 15.2 0.422222 15.2667 0.6 15.2667H4.66667V15.8C4.66667 15.9778 4.72222 16.1222 4.83333 16.2333C4.94444 16.3444 5.08889 16.4 5.26667 16.4C5.44444 16.4 5.58889 16.3444 5.7 16.2333C5.81111 16.1222 5.86667 15.9778 5.86667 15.8V5.86667H15.8667C16.0444 5.86667 16.1889 5.81111 16.3 5.7C16.4111 5.58889 16.4667 5.44444 16.4667 5.26667C16.4667 5.08889 16.4111 4.94444 16.3 4.83333C16.1889 4.72222 16.0444 4.66667 15.8667 4.66667ZM14.0667 4.66667H5.26667C5.08889 4.66667 4.94444 4.72222 4.83333 4.83333C4.72222 4.94444 4.66667 5.08889 4.66667 5.26667V14.0667H1.2V1.2H14.0667V4.66667Z" fill="white"/>
</g>
<defs>
<clipPath id="clip0_1_83">
<rect width="20" height="20" fill="white" transform="matrix(1 0 0 -1 0 20)"/>
</clipPath>
</defs>
</svg>
